<?xml version="1.0" standalone="no"?>
<!DOCTYPE svg PUBLIC "-//W3C//DTD SVG 20010904//EN"
 "http://www.w3.org/TR/2001/REC-SVG-20010904/DTD/svg10.dtd">
<svg version="1.0" xmlns="http://www.w3.org/2000/svg"
 width="1858.000000pt" height="1858.000000pt" viewBox="0 0 1858.000000 1858.000000"
 preserveAspectRatio="xMidYMid meet">
<metadata>
Created by potrace 1.11, written by Peter Selinger 2001-2013
</metadata>
<g transform="translate(0.000000,1858.000000) scale(0.100000,-0.100000)"
fill="#000000" stroke="none">
<path d="M7855 16572 c-5 -5 -46 -15 -90 -22 -150 -23 -173 -29 -183 -45 -4
-8 -22 -16 -39 -19 -32 -6 -83 -23 -83 -28 0 -2 26 -3 57 -3 47 0 57 -3 54
-15 -3 -8 -5 -258 -6 -555 -1 -297 -4 -549 -7 -560 -3 -11 -9 -44 -13 -72 -4
-29 -12 -53 -18 -54 -83 -3 -174 -15 -198 -24 -19 -7 -28 -22 -201 -345 -33
-61 -172 -314 -233 -425 -120 -215 -182 -325 -202 -357 -12 -21 -23 -40 -23
-42 0 -2 -23 -44 -51 -93 -28 -48 -61 -104 -71 -123 -297 -521 -819 -1328
-1000 -1545 -10 -11 -45 -56 -79 -99 -162 -206 -422 -494 -456 -502 -12 -4
-24 -9 -24 -13 -3 -11 -6 -109 -14 -391 -10 -389 -19 -641 -30 -815 -2 -38 -7
-126 -10 -195 -4 -69 -8 -145 -10 -170 -2 -25 -7 -97 -10 -160 -4 -63 -8 -131
-10 -150 -2 -19 -7 -82 -10 -140 -3 -58 -8 -127 -11 -155 -2 -27 -7 -79 -9
-115 -3 -36 -7 -92 -10 -125 -3 -33 -7 -91 -10 -130 -3 -38 -8 -90 -10 -115
-2 -25 -9 -97 -15 -160 -5 -63 -13 -142 -16 -175 -3 -33 -7 -80 -9 -105 -5
-58 -14 -153 -20 -210 -5 -47 -11 -98 -20 -190 -3 -30 -7 -68 -9 -85 -3 -16
-7 -66 -11 -110 -4 -44 -9 -88 -10 -97 -2 -10 -6 -48 -10 -86 -3 -38 -7 -78
-9 -88 -2 -10 -7 -50 -10 -89 -4 -38 -9 -81 -11 -95 -7 -50 -15 -116 -21 -175
-3 -33 -8 -68 -9 -77 -2 -9 -7 -49 -10 -89 -4 -40 -8 -80 -10 -88 -2 -15 -9
-66 -21 -166 -3 -22 -7 -56 -9 -75 -3 -19 -12 -93 -20 -165 -9 -71 -18 -141
-20 -155 -2 -14 -7 -50 -10 -80 -3 -30 -8 -66 -10 -80 -2 -14 -6 -47 -10 -75
-3 -27 -8 -67 -11 -87 -8 -58 -13 -97 -24 -188 -6 -47 -13 -94 -15 -105 -2
-11 -7 -42 -10 -70 -7 -59 -24 -199 -30 -235 -2 -14 -7 -45 -10 -70 -3 -25 -8
-56 -10 -70 -2 -14 -7 -50 -10 -80 -4 -30 -9 -62 -10 -71 -2 -9 -6 -40 -10
-70 -3 -30 -9 -67 -11 -84 -3 -16 -7 -46 -9 -65 -2 -19 -16 -116 -30 -215 -14
-99 -28 -198 -31 -220 -3 -22 -7 -51 -9 -65 -2 -14 -9 -63 -15 -110 -6 -47
-13 -96 -15 -110 -2 -14 -6 -45 -10 -70 -4 -25 -8 -56 -10 -70 -2 -14 -7 -45
-10 -69 -4 -24 -9 -58 -10 -75 -3 -28 -9 -66 -20 -132 -2 -12 -7 -48 -10 -80
-4 -33 -9 -68 -11 -79 -2 -11 -7 -40 -10 -65 -7 -53 -13 -96 -19 -130 -2 -14
-7 -47 -10 -73 -5 -45 -5 -47 14 -38 16 9 85 22 126 24 6 0 48 -11 95 -26 385
-119 1199 -321 1570 -391 27 -5 350 -68 465 -91 39 -8 86 -17 105 -20 31 -5
74 -13 160 -30 14 -3 41 -8 60 -11 19 -3 58 -9 85 -14 148 -28 214 -40 250
-45 22 -4 48 -8 58 -11 10 -3 30 -7 45 -9 15 -2 104 -17 197 -34 94 -16 186
-33 205 -36 19 -3 85 -14 145 -25 61 -11 128 -22 150 -25 22 -4 47 -8 55 -10
16 -5 39 -9 160 -30 127 -22 350 -64 445 -85 50 -10 106 -22 125 -25 19 -3 53
-10 75 -15 22 -5 55 -12 74 -15 19 -3 37 -7 40 -9 3 -2 28 -7 55 -10 27 -4 53
-9 56 -11 4 -2 74 -18 156 -34 82 -17 203 -42 269 -56 66 -14 129 -27 140 -29
705 -137 753 -146 930 -172 17 -3 53 -9 80 -14 46 -8 117 -19 172 -25 13 -2
40 -6 60 -9 21 -3 58 -8 83 -11 25 -3 61 -7 80 -10 65 -9 115 -14 180 -20 36
-3 81 -8 100 -10 290 -36 902 -50 947 -22 5 3 39 8 75 12 37 4 89 12 115 19
57 15 46 -20 109 356 19 118 37 226 40 240 3 14 12 76 22 137 9 62 19 113 23
113 3 0 19 -19 36 -42 31 -43 98 -113 163 -168 53 -46 196 -116 280 -138 83
-22 183 -27 250 -13 25 5 173 46 329 91 156 44 286 79 289 76 3 -3 0 -6 -6 -6
-6 0 -55 -20 -108 -45 -53 -25 -97 -45 -99 -45 -2 0 -51 -22 -109 -49 -57 -28
-126 -60 -153 -72 -26 -12 -111 -51 -188 -86 -77 -36 -165 -77 -195 -91 -30
-13 -106 -49 -168 -78 -63 -30 -115 -54 -118 -54 -2 0 -45 -20 -96 -44 -51
-24 -172 -78 -268 -121 -173 -77 -229 -106 -154 -80 22 7 53 15 69 18 87 14
118 23 210 62 108 46 392 175 650 295 50 23 110 51 135 62 25 11 83 38 130 60
74 35 225 105 381 176 26 12 136 62 245 112 192 88 207 93 513 171 174 45 323
83 333 85 10 2 26 6 36 8 41 10 118 28 132 31 104 22 201 50 245 70 61 29 149
104 170 145 12 24 22 29 72 34 32 4 72 12 90 17 33 11 40 29 58 154 3 22 12
78 20 125 8 47 17 103 20 125 3 23 7 50 9 60 7 34 28 179 31 210 2 17 8 59 14
95 12 73 20 136 27 194 2 21 12 45 21 52 15 12 15 13 2 8 -15 -4 -16 0 -9 38
4 24 11 68 14 98 4 30 8 66 10 80 5 32 15 103 21 155 3 22 7 57 10 78 5 37 11
84 20 155 11 95 16 129 20 152 3 14 7 52 10 85 3 33 7 71 10 85 3 14 7 50 10
80 3 30 7 66 10 79 2 13 7 51 10 85 2 33 7 70 9 81 2 11 7 49 11 85 4 36 8 72
10 80 1 8 6 46 10 83 3 37 8 76 10 85 1 9 6 46 9 82 4 36 9 76 11 90 2 14 7
50 10 80 4 30 8 66 10 80 2 14 6 52 10 85 3 33 8 71 10 85 2 14 6 48 10 75 3
28 8 66 10 85 3 19 7 53 10 75 12 103 16 132 20 165 2 19 7 58 10 85 3 28 8
61 10 75 2 14 7 45 10 70 3 25 10 77 15 115 5 39 12 89 15 113 8 70 16 126 20
152 2 14 16 113 30 220 14 107 28 206 30 220 4 27 11 75 21 155 3 28 8 57 9
65 2 9 6 43 10 75 4 33 9 67 10 75 2 8 6 44 11 80 4 36 8 67 9 70 1 3 5 32 9
65 4 33 9 71 11 85 2 14 7 48 10 75 4 28 8 61 10 75 2 14 9 63 15 110 6 47 12
99 15 115 2 17 7 55 10 85 6 56 12 106 20 170 2 19 7 58 10 85 3 28 7 64 9 80
2 17 7 59 11 95 3 36 8 76 10 90 2 14 7 61 11 105 3 44 8 87 9 96 2 8 6 53 10
100 3 46 8 95 10 109 2 14 6 59 10 100 3 41 8 95 10 120 3 25 7 90 10 145 4
55 8 111 10 125 3 20 15 233 18 315 2 52 -141 394 -263 630 -180 346 -334 602
-685 1135 -230 351 -348 535 -470 735 -52 86 -95 158 -95 160 0 2 -13 26 -28
52 -55 94 -106 190 -179 338 -40 83 -78 158 -83 167 -6 10 -10 30 -10 44 0 19
-4 25 -15 20 -14 -5 -18 17 -18 89 0 68 18 260 30 325 3 19 7 44 8 55 3 30 11
67 75 330 32 132 61 251 64 265 3 14 13 64 24 111 l19 86 -61 -1 c-62 0 -295
13 -325 19 -9 1 -54 6 -101 10 -47 3 -98 8 -115 10 -16 2 -68 7 -115 11 -47 3
-92 8 -101 9 -9 2 -52 6 -95 10 -43 4 -86 9 -94 10 -8 2 -44 6 -80 10 -36 4
-72 8 -80 10 -9 2 -43 6 -75 10 -33 4 -67 9 -75 10 -8 2 -40 6 -70 10 -30 4
-64 9 -75 11 -10 2 -37 6 -60 9 -22 3 -65 10 -95 15 -54 9 -101 17 -150 25
-49 8 -206 35 -230 40 -14 3 -52 10 -85 15 -89 16 -465 88 -580 111 -55 11
-111 22 -125 24 -14 2 -104 20 -200 39 -204 41 -238 47 -265 51 -11 2 -92 17
-180 33 -184 35 -232 44 -260 47 -11 2 -85 14 -165 28 -80 14 -163 28 -185 32
-22 3 -51 8 -65 10 -74 12 -331 54 -365 59 -22 4 -76 13 -120 21 -44 7 -96 16
-115 19 -19 3 -102 17 -185 31 -82 14 -163 28 -180 31 -16 2 -64 11 -105 19
-41 8 -86 16 -100 19 -20 3 -147 28 -360 71 -48 9 -257 58 -325 75 -44 12 -87
22 -95 25 -8 2 -103 26 -210 53 -175 45 -506 124 -570 136 -14 3 -50 9 -80 15
-30 6 -71 13 -90 17 -19 3 -42 7 -50 9 -8 2 -23 4 -32 4 -9 1 -18 10 -20 22
-2 13 -7 17 -13 11z m126 -188 c129 -28 637 -155 744 -185 171 -47 677 -159
839 -184 21 -4 48 -9 60 -11 11 -2 46 -8 76 -13 30 -6 93 -17 140 -25 112 -19
147 -25 195 -32 22 -3 63 -9 90 -14 46 -9 74 -13 165 -26 19 -3 46 -7 60 -10
46 -8 65 -11 115 -18 98 -14 149 -22 300 -46 72 -12 144 -23 160 -26 17 -2 41
-6 55 -9 13 -2 40 -7 60 -10 20 -3 47 -7 60 -10 13 -3 40 -7 60 -10 20 -3 47
-8 60 -10 14 -3 75 -14 135 -25 61 -10 121 -21 135 -24 14 -3 54 -10 90 -16
36 -6 97 -17 135 -25 39 -8 86 -17 105 -20 19 -3 49 -8 65 -12 17 -3 39 -7 50
-9 11 -2 106 -19 210 -39 452 -84 556 -103 605 -110 24 -4 47 -8 50 -10 3 -1
28 -6 55 -9 28 -4 57 -9 65 -11 8 -2 33 -6 55 -10 22 -3 47 -7 55 -10 8 -2 37
-6 64 -10 27 -3 85 -12 130 -20 44 -7 133 -21 196 -30 63 -9 126 -18 140 -20
71 -10 109 -15 150 -20 25 -3 61 -7 80 -10 19 -2 60 -7 90 -10 30 -3 71 -7 90
-10 54 -7 254 -22 380 -30 200 -12 282 -28 313 -63 30 -32 26 -67 -19 -203
-54 -159 -117 -418 -140 -569 -22 -154 -22 -156 -30 -275 -3 -60 -9 -114 -11
-118 -3 -5 -17 -6 -32 -2 -35 9 -51 12 -105 20 -25 4 -46 10 -46 13 0 2 18 24
39 47 159 173 127 493 -79 776 -119 164 -312 300 -492 348 -70 19 -100 24
-213 36 -27 3 -66 7 -85 10 -19 3 -57 7 -85 10 -27 3 -66 8 -85 11 -19 3 -59
7 -89 10 -29 2 -56 6 -60 8 -3 2 -40 7 -81 11 -41 4 -77 9 -80 10 -3 2 -33 6
-65 10 -33 3 -67 8 -75 10 -8 2 -39 7 -69 10 -30 4 -63 9 -75 11 -24 5 -59 10
-126 18 -25 3 -85 12 -135 21 -49 9 -101 18 -115 20 -14 1 -56 8 -95 14 -38 6
-86 14 -105 17 -33 5 -122 20 -165 28 -34 6 -88 15 -125 21 -63 10 -442 78
-560 100 -8 2 -53 10 -100 19 -47 9 -94 18 -105 20 -11 2 -40 7 -65 12 -25 4
-47 8 -50 9 -24 5 -81 15 -110 20 -19 3 -62 12 -95 20 -33 7 -76 16 -95 19
-52 8 -1337 266 -1450 291 -60 13 -302 61 -360 72 -14 2 -65 13 -115 23 -49
11 -101 21 -115 24 -14 2 -65 12 -115 21 -49 10 -117 17 -150 17 -106 0 -238
-45 -325 -110 -44 -32 -120 -111 -120 -124 0 -5 -4 -7 -9 -4 -4 3 -9 43 -11
88 -4 154 -8 378 -5 378 1 0 54 -12 116 -26z m-39 -1098 c18 -22 53 -63 80
-90 26 -26 48 -50 48 -52 0 -2 -10 -4 -22 -3 -13 0 -51 0 -85 -1 -163 -3 -205
78 -131 252 l20 47 29 -56 c16 -30 43 -74 61 -97z m-247 -208 c61 -11 119 -22
130 -24 11 -2 45 -8 75 -14 30 -6 66 -12 80 -15 14 -3 99 -18 190 -35 264 -49
312 -59 367 -74 46 -13 205 -47 275 -60 15 -2 63 -12 105 -20 43 -9 87 -18 98
-20 11 -2 79 -16 150 -31 72 -14 141 -28 155 -31 14 -3 70 -14 125 -25 55 -12
108 -22 118 -24 32 -7 472 -97 492 -101 10 -2 37 -6 59 -10 22 -3 43 -7 47 -9
3 -2 21 -7 40 -10 19 -3 122 -24 229 -45 107 -22 213 -42 235 -46 22 -3 43 -8
46 -10 3 -2 21 -6 40 -9 19 -3 90 -16 159 -30 69 -13 136 -26 150 -29 14 -2
36 -7 50 -10 14 -3 39 -8 55 -11 17 -3 80 -14 140 -26 61 -11 133 -24 160 -29
57 -10 99 -18 135 -25 14 -3 77 -14 140 -25 63 -11 125 -22 136 -24 12 -2 37
-7 55 -10 19 -3 88 -15 154 -26 66 -12 132 -23 148 -25 15 -3 39 -7 55 -10 79
-13 282 -45 312 -49 19 -2 62 -9 95 -15 33 -5 78 -12 100 -15 22 -2 87 -12
145 -20 148 -23 159 -24 215 -31 28 -3 61 -8 75 -11 14 -3 45 -8 70 -10 25 -2
61 -6 80 -9 19 -3 55 -8 80 -11 25 -2 59 -6 75 -8 17 -3 57 -8 90 -11 33 -4
71 -8 85 -11 38 -6 155 -14 260 -19 52 -2 104 -6 115 -8 11 -3 86 -19 167 -36
112 -23 155 -28 179 -21 18 6 34 9 35 7 1 -1 4 -45 8 -97 4 -52 8 -107 10
-121 2 -14 0 -48 -5 -75 -5 -27 -12 -60 -14 -74 -3 -14 -9 -40 -14 -58 -5 -18
-10 -36 -11 -40 -6 -52 -83 -273 -142 -412 -58 -136 -187 -386 -323 -630 -126
-226 -144 -258 -210 -382 -68 -127 -287 -564 -337 -673 -20 -44 -54 -118 -76
-165 -22 -47 -56 -123 -77 -170 -20 -47 -43 -98 -50 -115 -8 -16 -25 -58 -39
-92 -15 -35 -37 -86 -49 -115 -13 -29 -31 -73 -41 -98 -10 -25 -22 -52 -26
-61 -4 -8 -34 -80 -65 -160 -31 -79 -63 -157 -70 -174 -7 -16 -21 -52 -30 -80
-10 -27 -22 -53 -27 -56 -5 -3 -57 2 -116 12 -59 9 -134 20 -167 24 -32 3 -62
8 -65 10 -3 2 -32 6 -65 9 -33 4 -71 9 -85 11 -14 3 -41 7 -60 10 -95 12 -348
46 -370 50 -14 2 -47 7 -75 10 -27 4 -57 8 -65 10 -8 3 -38 7 -66 10 -28 3
-60 7 -71 9 -12 3 -43 7 -70 11 -82 11 -93 13 -288 45 -104 17 -203 33 -220
36 -16 3 -37 7 -45 9 -8 2 -33 6 -55 10 -191 27 -834 174 -1225 279 -30 8
-107 28 -170 44 -154 40 -523 139 -585 157 -61 18 -288 80 -610 166 -110 30
-727 188 -755 194 -8 2 -100 24 -205 48 -104 25 -217 51 -250 58 -33 7 -62 13
-65 14 -27 6 -70 15 -90 19 -14 3 -50 10 -80 16 -30 6 -66 14 -80 16 -14 3
-74 16 -135 29 -60 13 -123 25 -140 28 -16 3 -109 21 -205 41 -96 19 -188 38
-205 41 -16 2 -41 7 -55 10 -14 3 -38 8 -55 11 -16 3 -48 9 -70 14 -22 5 -56
12 -75 15 -19 3 -169 33 -333 66 -164 32 -301 59 -305 59 -4 0 13 13 38 29 87
55 227 217 417 481 91 127 597 880 689 1025 78 123 217 352 275 451 186 320
288 500 374 659 21 39 45 84 55 100 10 17 34 62 55 100 115 211 166 305 242
447 80 149 85 156 111 152 15 -3 77 -14 137 -26z m7050 -1627 c3 -10 28 -56
55 -101 28 -45 50 -83 50 -85 0 -5 117 -196 200 -326 39 -60 70 -112 70 -114
0 -2 -12 0 -27 6 -96 37 -238 53 -338 37 -27 -4 -66 -10 -85 -13 -30 -5 -159
-47 -214 -70 -11 -5 -17 -4 -15 1 3 5 37 74 76 154 78 160 125 275 175 429 18
55 36 101 40 101 4 0 9 -8 13 -19z m905 -1438 c34 -54 67 -107 73 -118 7 -11
24 -38 38 -60 14 -22 63 -105 108 -185 45 -80 89 -156 97 -170 16 -28 191
-382 219 -443 9 -21 15 -40 13 -42 -1 -1 -50 -5 -108 -9 -133 -8 -252 -19
-320 -30 -14 -3 -59 -10 -100 -16 -41 -6 -91 -15 -110 -20 -19 -5 -51 -11 -70
-14 -111 -17 -418 -102 -665 -184 -178 -59 -501 -174 -540 -192 -21 -10 -437
-170 -640 -247 -182 -69 -271 -101 -370 -134 -49 -17 -94 -34 -98 -38 -11 -11
208 49 288 78 33 12 67 24 75 26 15 3 164 58 275 100 190 73 334 128 360 139
17 7 46 19 65 26 19 6 49 18 65 26 54 24 347 131 520 189 275 92 575 164 790
191 28 3 61 8 75 10 14 3 104 7 200 10 176 5 253 15 302 40 l27 14 43 -108
c40 -99 43 -113 42 -197 0 -83 -9 -248 -19 -355 -2 -25 -7 -83 -10 -130 -3
-47 -8 -105 -10 -130 -12 -132 -17 -178 -20 -210 -2 -19 -7 -64 -10 -100 -9
-97 -14 -146 -25 -241 -6 -47 -13 -112 -16 -145 -5 -61 -13 -117 -17 -121 -2
-1 -18 -5 -37 -8 -42 -7 -76 -19 -155 -55 -171 -80 -581 -241 -670 -264 -5 -2
-17 -6 -25 -9 -18 -7 -272 -86 -298 -93 -9 -2 -123 -34 -252 -70 -129 -36
-242 -67 -251 -69 -70 -15 -280 -66 -304 -74 -16 -5 -52 -14 -80 -20 -27 -7
-66 -16 -85 -21 -30 -8 -195 -48 -225 -54 -148 -33 -215 -51 -215 -58 0 -5 4
-7 8 -4 5 3 19 7 33 10 46 10 201 46 262 60 34 9 130 32 212 52 83 20 157 37
165 39 8 2 44 11 80 20 36 9 76 18 90 21 14 3 68 16 120 30 52 15 102 28 110
29 8 2 42 11 75 20 33 9 68 18 79 20 10 3 42 11 70 19 28 8 76 22 106 30 174
46 731 227 835 271 17 7 68 27 115 45 47 18 104 41 127 52 80 35 111 43 106
28 -1 -3 -4 -34 -7 -70 -3 -36 -8 -74 -10 -85 -2 -11 -7 -49 -11 -85 -4 -36
-8 -72 -10 -80 -1 -8 -6 -42 -9 -75 -4 -33 -9 -67 -11 -75 -2 -8 -6 -42 -10
-75 -3 -33 -8 -71 -10 -85 -2 -14 -13 -97 -25 -185 -12 -88 -30 -221 -40 -295
-10 -74 -22 -157 -25 -185 -4 -27 -8 -60 -10 -71 -2 -12 -7 -48 -10 -80 -4
-33 -9 -67 -11 -78 -2 -10 -6 -44 -9 -75 -4 -31 -8 -63 -10 -71 -2 -8 -7 -42
-11 -75 -3 -33 -8 -62 -9 -65 -2 -3 -6 -39 -10 -80 -4 -41 -8 -77 -10 -80 -2
-3 -6 -34 -10 -70 -4 -36 -9 -74 -11 -84 -2 -11 -6 -44 -9 -75 -3 -31 -7 -65
-9 -76 -2 -11 -7 -49 -11 -85 -3 -36 -8 -72 -10 -80 -2 -8 -7 -42 -10 -75 -3
-33 -7 -69 -9 -80 -2 -11 -7 -49 -11 -85 -3 -36 -8 -76 -10 -90 -3 -14 -7 -52
-10 -85 -3 -33 -8 -71 -10 -85 -6 -41 -24 -180 -31 -250 -3 -36 -8 -74 -10
-84 -2 -11 -6 -44 -9 -75 -5 -57 -10 -99 -21 -173 -4 -24 -7 -54 -9 -68 -6
-66 -17 -167 -20 -180 -2 -8 -6 -44 -10 -80 -4 -36 -8 -72 -10 -80 -2 -8 -6
-44 -10 -80 -3 -36 -8 -72 -10 -80 -2 -8 -6 -42 -10 -75 -3 -33 -8 -71 -10
-85 -2 -14 -9 -65 -15 -115 -6 -49 -13 -103 -15 -120 -2 -16 -9 -66 -15 -110
-14 -105 -18 -130 -26 -190 -9 -72 -13 -88 -21 -96 -9 -9 -581 -180 -603 -180
-8 0 -57 0 -108 1 -100 1 -200 -20 -682 -142 -107 -27 -204 -51 -215 -53 -18
-4 -695 -189 -805 -220 -235 -67 -374 -111 -425 -134 -33 -16 -61 -28 -61 -27
-1 0 9 73 21 161 24 167 34 241 40 288 2 15 6 44 9 65 3 20 8 57 11 82 3 25 8
56 10 70 2 14 7 50 10 80 4 30 8 66 10 80 2 14 6 50 10 80 4 30 8 66 10 80 2
14 7 50 10 80 3 30 8 66 10 80 2 14 6 50 10 80 6 55 11 97 20 168 2 20 7 62
10 92 3 30 7 71 10 90 3 19 7 58 10 85 8 89 16 169 20 195 2 14 7 61 11 105 3
44 8 87 9 96 2 8 6 55 10 105 4 49 9 96 10 104 2 8 6 53 9 100 4 47 9 96 11
110 3 14 7 66 10 116 3 50 7 99 9 110 2 10 7 66 11 124 3 58 8 120 10 137 2
18 7 74 10 125 3 51 8 118 10 148 3 30 7 93 10 140 3 47 7 117 10 155 2 39 7
111 10 160 4 83 7 139 20 380 2 50 7 155 10 235 3 80 8 195 10 255 3 61 7 206
10 324 2 118 6 215 8 217 2 2 35 -3 74 -11 76 -16 211 -14 298 4 69 13 299 91
660 223 450 164 510 186 635 230 63 22 122 42 130 45 8 4 17 7 20 8 3 0 61 20
130 42 166 55 372 117 440 133 138 33 258 100 373 210 122 115 240 307 273
443 60 249 18 442 -123 567 -124 109 -340 142 -583 91 -180 -38 -990 -304
-1220 -401 -25 -10 -85 -33 -135 -51 -49 -17 -133 -47 -185 -66 -52 -19 -192
-68 -310 -109 -246 -85 -309 -114 -400 -184 -36 -27 -67 -49 -70 -50 -3 0 -6
37 -7 82 -1 66 2 85 15 95 26 20 83 45 122 53 33 6 31 7 -28 14 -53 7 -62 11
-57 25 4 9 24 61 45 116 105 275 317 795 330 809 5 4 20 -10 33 -31 62 -99
217 -189 357 -209 111 -15 312 11 465 61 44 15 255 74 282 80 10 2 47 10 83
19 36 8 112 22 170 30 164 25 246 56 380 144 208 136 382 380 408 571 7 55 7
156 -1 193 -8 38 -77 238 -94 271 -28 56 -2 24 57 -70z m-10245 -448 c50 -9
167 -34 260 -56 94 -22 177 -42 185 -44 18 -4 341 -88 460 -120 83 -22 84 -23
55 -34 -71 -28 -174 -87 -230 -131 -322 -257 -491 -688 -384 -977 30 -79 43
-98 113 -168 47 -47 87 -73 176 -117 228 -112 448 -187 805 -274 17 -4 35 -8
40 -10 16 -4 268 -56 295 -60 14 -3 61 -12 105 -20 44 -8 96 -17 115 -20 19
-2 58 -8 85 -14 60 -12 110 -20 148 -25 16 -2 40 -6 55 -9 29 -6 67 -13 121
-22 18 -3 43 -8 55 -10 11 -2 48 -9 81 -15 271 -47 660 -137 1365 -315 294
-74 542 -136 550 -138 8 -2 71 -18 140 -36 69 -17 132 -33 140 -35 8 -2 94
-24 190 -48 298 -76 700 -173 800 -193 14 -3 33 -7 42 -10 19 -6 52 -13 88
-20 14 -2 36 -7 50 -11 30 -7 30 -7 101 -22 30 -6 69 -14 85 -17 16 -3 38 -8
49 -11 11 -3 29 -7 40 -9 11 -2 76 -15 145 -29 123 -26 221 -33 290 -21 250
45 485 251 630 550 69 144 99 258 104 392 6 165 -35 291 -124 381 -81 82 -173
119 -390 159 -52 9 -99 21 -105 27 -7 7 -7 8 0 5 6 -3 35 -9 66 -12 31 -4 65
-8 75 -10 11 -2 42 -7 69 -10 28 -4 61 -9 75 -11 14 -2 97 -14 185 -26 88 -12
165 -26 172 -31 8 -6 12 -58 13 -161 3 -323 2 -517 -5 -548 -11 -51 -13 -161
-4 -214 9 -52 11 -263 4 -535 -10 -411 -26 -827 -40 -1085 -3 -44 -7 -129 -10
-190 -3 -60 -7 -135 -10 -165 -3 -30 -7 -98 -10 -150 -3 -52 -7 -124 -10 -160
-11 -144 -16 -217 -20 -265 -2 -27 -7 -86 -10 -130 -3 -44 -7 -98 -10 -120 -2
-22 -7 -76 -10 -120 -3 -44 -8 -100 -11 -125 -2 -25 -6 -70 -9 -100 -13 -156
-16 -197 -20 -220 -2 -14 -7 -63 -10 -110 -4 -46 -8 -87 -10 -90 -1 -3 -6 -45
-10 -95 -4 -49 -8 -92 -10 -95 -1 -3 -6 -45 -10 -93 -3 -48 -8 -97 -10 -107
-2 -10 -6 -47 -10 -82 -3 -35 -8 -76 -10 -93 -2 -16 -7 -51 -10 -77 -3 -27 -7
-69 -10 -95 -3 -27 -8 -62 -10 -80 -3 -17 -9 -73 -15 -125 -6 -51 -12 -104
-15 -118 -2 -14 -6 -47 -10 -75 -8 -72 -25 -206 -30 -235 -4 -24 -22 -158 -29
-217 -6 -41 -17 -124 -22 -152 -2 -13 -6 -45 -10 -70 -3 -25 -8 -57 -10 -71
-2 -14 -7 -46 -10 -72 -7 -50 -1 -47 -74 -34 -14 3 -43 8 -65 11 -22 3 -62 10
-90 15 -27 5 -66 12 -85 15 -19 3 -57 10 -85 15 -27 5 -66 12 -85 14 -19 2
-46 7 -60 10 -14 3 -41 8 -60 10 -19 3 -73 12 -120 20 -47 8 -101 17 -120 20
-19 2 -46 7 -60 10 -14 3 -43 8 -65 11 -22 4 -65 10 -95 15 -30 5 -86 14 -125
20 -38 6 -135 21 -215 35 -80 13 -162 26 -182 29 -21 3 -55 9 -75 12 -32 4
-127 20 -244 39 -14 3 -43 7 -65 10 -21 2 -50 7 -64 9 -14 3 -45 8 -70 11 -25
3 -52 8 -60 10 -8 3 -32 7 -52 9 -21 3 -53 7 -70 10 -112 18 -229 36 -268 41
-25 3 -70 10 -100 15 -72 12 -110 18 -195 30 -38 6 -83 13 -100 17 -16 3 -41
6 -55 8 -14 1 -45 5 -70 9 -25 4 -56 9 -70 11 -156 24 -370 57 -390 61 -14 2
-41 6 -60 9 -19 3 -80 12 -135 20 -55 9 -113 18 -130 20 -31 5 -99 15 -125 20
-8 2 -37 6 -65 9 -52 7 -73 10 -165 26 -30 5 -73 12 -95 15 -63 9 -104 15
-200 30 -49 8 -107 17 -129 21 -21 3 -47 7 -56 9 -10 2 -40 7 -67 11 -26 3
-57 8 -68 10 -10 2 -37 6 -60 9 -22 4 -52 8 -67 11 -16 2 -40 6 -55 8 -16 3
-73 12 -128 21 -196 31 -290 46 -315 50 -14 2 -54 9 -90 15 -36 6 -94 15 -130
21 -36 5 -72 11 -80 14 -8 2 -35 6 -60 9 -25 3 -56 8 -70 11 -14 2 -36 7 -50
10 -14 2 -45 7 -70 10 -25 4 -67 11 -95 16 -27 5 -66 12 -85 15 -19 3 -87 14
-150 25 -63 11 -140 25 -170 30 -30 5 -64 11 -75 13 -11 2 -63 11 -115 20 -52
9 -105 18 -116 20 -12 3 -37 7 -55 10 -19 3 -83 15 -144 26 -60 11 -126 23
-145 26 -19 3 -80 14 -135 24 -55 11 -116 22 -135 25 -19 3 -68 13 -109 21
-88 18 -136 20 -174 5 -16 -6 -30 -11 -31 -11 -2 0 1 24 5 53 5 28 11 75 14
102 3 28 10 77 15 110 15 100 19 128 25 180 3 28 8 61 10 75 3 14 7 45 10 70
3 25 7 54 9 66 2 12 7 45 11 75 3 30 8 65 10 79 2 14 7 45 10 70 6 47 15 114
20 140 2 8 6 44 10 80 4 36 9 72 10 81 2 9 6 40 10 70 3 30 8 65 10 79 2 14 6
45 10 70 3 25 7 61 10 80 3 19 7 55 10 80 4 25 8 56 10 70 2 14 7 50 10 80 3
30 10 82 15 115 5 33 12 85 15 115 3 30 8 66 10 80 2 14 7 50 10 80 3 30 8 66
10 80 2 14 7 54 10 90 4 36 8 72 10 80 2 8 6 44 10 80 3 36 8 72 10 80 2 8 7
49 10 90 4 41 9 83 10 92 2 9 6 45 10 80 3 35 8 77 11 93 2 17 6 50 8 75 3 25
7 68 10 95 7 53 11 94 21 190 4 33 9 71 11 85 2 14 6 57 9 95 3 39 8 81 10 95
2 14 7 59 10 100 4 41 8 86 10 100 3 14 7 55 10 90 2 36 7 85 10 110 2 25 7
74 10 110 3 36 8 81 10 100 2 19 7 69 10 110 3 41 8 95 10 120 2 25 7 81 11
125 3 44 8 97 10 118 2 20 6 68 8 105 17 213 20 243 25 275 0 5 4 6 9 4 4 -3
36 -8 71 -11 36 -4 67 -8 70 -10 3 -2 35 -7 70 -10 36 -4 67 -8 70 -10 3 -2
29 -6 56 -10 28 -3 61 -8 75 -10 69 -12 339 -58 365 -63 17 -2 62 -10 100 -18
39 -8 84 -16 100 -19 77 -14 402 -82 605 -127 234 -52 297 -67 540 -125 80
-19 172 -41 205 -49 33 -8 350 -87 705 -175 355 -89 655 -164 668 -166 12 -2
97 -22 188 -44 394 -96 984 -225 1164 -255 19 -3 53 -10 75 -15 22 -5 56 -11
75 -14 19 -3 49 -8 65 -11 121 -22 196 -35 230 -40 22 -3 47 -7 55 -10 8 -2
35 -6 60 -9 25 -3 54 -8 66 -10 12 -2 45 -7 74 -11 29 -4 60 -8 69 -10 15 -2
101 -15 146 -20 11 -2 47 -6 80 -10 33 -3 71 -8 85 -11 14 -2 52 -7 85 -9 33
-3 76 -7 95 -10 19 -3 58 -7 85 -9 150 -14 185 -17 240 -21 33 -2 114 -7 180
-11 l120 -6 94 37 c52 20 102 37 112 38 38 3 7 10 -53 13 -68 3 -208 13 -273
19 -22 2 -76 7 -119 10 -43 4 -86 8 -95 10 -9 1 -47 6 -86 10 -38 3 -85 8
-102 11 -18 2 -48 6 -65 8 -75 10 -196 26 -243 31 -27 4 -57 8 -65 10 -8 2
-35 7 -60 10 -54 7 -87 12 -160 25 -30 5 -71 12 -90 15 -36 6 -130 22 -165 29
-88 17 -246 46 -270 50 -53 10 -329 66 -370 76 -34 8 -181 40 -250 55 -57 12
-253 57 -350 80 -60 15 -117 28 -125 30 -43 9 -305 74 -955 235 -775 192 -861
213 -1090 266 -82 19 -159 37 -170 39 -11 3 -29 7 -40 9 -11 3 -63 14 -115 26
-126 27 -517 109 -555 115 -16 3 -64 12 -105 20 -41 9 -90 17 -107 19 -18 3
-40 7 -50 10 -10 3 -36 7 -58 11 -22 3 -47 7 -55 10 -8 2 -35 6 -60 9 -40 5
-110 17 -180 30 -14 2 -47 7 -75 11 -27 3 -77 10 -110 15 -33 5 -76 12 -95 15
-19 3 -71 8 -116 11 -77 6 -84 5 -164 -30 -78 -34 -127 -46 -117 -28 5 6 9 56
22 267 2 39 7 109 10 156 11 172 18 299 31 579 2 63 7 153 9 200 2 47 7 193
11 325 7 254 11 399 13 402 1 1 9 0 19 -2 9 -1 58 -10 107 -20z m-744 -6995
c30 -5 68 -12 84 -15 17 -3 80 -14 140 -25 61 -11 121 -22 135 -25 14 -3 78
-14 142 -26 64 -11 127 -22 139 -24 42 -8 323 -57 354 -61 17 -3 50 -9 75 -14
25 -5 65 -12 90 -16 25 -3 54 -8 65 -10 10 -2 35 -6 55 -9 20 -3 45 -7 57 -9
11 -3 38 -7 59 -10 22 -4 46 -8 54 -11 8 -2 35 -6 60 -9 25 -3 56 -8 70 -11
14 -3 54 -10 90 -15 36 -6 76 -13 90 -16 14 -2 43 -7 65 -10 22 -2 51 -7 65
-10 14 -3 41 -8 60 -10 19 -3 73 -11 120 -19 47 -8 103 -17 125 -20 22 -3 51
-8 65 -10 14 -3 43 -7 65 -10 22 -3 51 -8 65 -10 14 -3 39 -7 55 -9 42 -7 271
-43 380 -61 50 -8 109 -17 132 -19 23 -3 79 -12 125 -20 45 -8 103 -17 128
-21 25 -3 59 -8 75 -11 17 -3 46 -7 65 -10 19 -2 60 -8 90 -14 30 -5 73 -12
95 -15 22 -3 81 -12 130 -20 104 -16 115 -18 330 -50 88 -13 203 -31 255 -39
52 -8 142 -22 200 -30 58 -9 121 -19 140 -22 19 -3 53 -7 75 -10 22 -3 47 -7
55 -9 8 -2 78 -14 155 -25 189 -29 204 -31 228 -36 11 -2 57 -8 101 -15 44 -6
83 -12 86 -14 3 -1 30 -6 61 -9 31 -4 67 -9 80 -11 41 -8 212 -36 254 -41 22
-3 63 -9 90 -14 28 -5 73 -12 100 -16 28 -3 53 -8 56 -10 3 -1 28 -6 55 -9 27
-4 103 -15 169 -26 66 -11 131 -22 145 -24 19 -3 292 -48 491 -80 97 -16 268
-46 289 -50 13 -2 40 -7 60 -10 20 -3 47 -8 60 -10 14 -3 52 -10 85 -15 33 -5
69 -12 80 -14 132 -25 158 -24 241 14 37 16 69 30 71 30 3 0 1 -24 -3 -52 -4
-29 -9 -64 -10 -78 -1 -14 -3 -25 -4 -25 -1 0 -5 -22 -14 -95 -3 -25 -7 -54
-10 -65 -3 -18 -8 -47 -21 -135 -3 -14 -11 -68 -19 -120 -9 -52 -18 -112 -22
-134 -3 -21 -7 -48 -10 -59 -2 -12 -6 -39 -9 -62 -3 -22 -8 -47 -10 -55 -2 -8
-7 -35 -10 -60 -3 -25 -12 -81 -20 -125 -8 -44 -17 -98 -20 -120 -12 -83 2
-77 -173 -70 -157 6 -219 9 -342 20 -137 11 -188 16 -295 29 -22 3 -65 8 -95
11 -30 3 -66 8 -80 10 -14 2 -49 7 -79 10 -30 4 -63 9 -75 11 -12 2 -39 6 -61
9 -57 8 -274 42 -380 61 -49 9 -101 18 -115 20 -14 3 -47 9 -75 14 -27 5 -61
12 -75 14 -95 17 -373 73 -580 116 -135 28 -256 53 -270 56 -14 3 -86 18 -160
33 -74 16 -153 32 -175 37 -22 4 -44 8 -50 9 -58 13 -268 55 -295 60 -19 3
-42 8 -50 10 -8 2 -31 7 -50 10 -19 3 -57 10 -85 15 -27 6 -61 12 -75 15 -41
8 -352 64 -389 70 -19 3 -37 7 -40 9 -3 2 -28 7 -56 10 -27 4 -57 9 -65 11 -8
2 -31 6 -50 9 -19 3 -46 8 -60 11 -14 3 -41 8 -60 11 -33 5 -209 37 -275 49
-16 3 -46 8 -65 11 -19 3 -42 7 -50 9 -8 3 -33 7 -55 10 -71 11 -87 14 -335
61 -41 7 -93 16 -115 20 -22 3 -60 10 -85 16 -25 5 -56 11 -70 14 -14 2 -34 6
-45 8 -11 3 -30 5 -43 5 -13 1 -20 5 -17 11 4 6 9 9 13 6 9 -5 137 -16 347
-30 55 -4 116 -9 135 -11 19 -3 76 -7 125 -10 50 -3 108 -7 130 -10 22 -2 72
-7 110 -10 39 -4 81 -8 95 -10 14 -2 54 -7 90 -10 36 -4 74 -9 84 -11 11 -2
56 -8 100 -14 45 -6 92 -13 106 -15 32 -5 96 -14 146 -21 76 -10 167 -23 204
-29 34 -6 306 -45 350 -51 19 -2 58 -9 85 -14 28 -5 68 -12 90 -15 22 -3 49
-7 60 -9 11 -2 40 -7 65 -11 68 -10 93 -14 120 -20 14 -3 75 -14 135 -25 61
-11 124 -22 140 -25 151 -28 507 -107 674 -151 126 -33 352 -90 390 -100 9 -2
32 -8 51 -13 63 -16 434 -99 470 -105 19 -3 45 -8 56 -10 35 -7 97 -17 129
-21 17 -2 62 -8 100 -14 201 -29 561 -36 655 -12 159 40 253 122 286 252 61
238 -124 547 -407 678 -92 43 -170 59 -310 61 -153 2 -275 7 -354 15 -33 3
-82 8 -110 11 -27 3 -79 9 -115 14 -36 5 -83 12 -105 15 -46 7 -100 15 -124
20 -9 1 -56 10 -106 19 -111 21 -290 58 -410 86 -49 12 -108 25 -130 30 -22 5
-204 50 -405 100 -528 131 -661 163 -870 204 -135 27 -184 36 -215 41 -27 3
-104 15 -135 20 -82 13 -161 25 -205 31 -27 3 -53 8 -56 10 -3 2 -37 6 -75 9
-38 4 -71 8 -74 10 -3 2 -26 6 -50 9 -114 16 -197 28 -220 31 -14 3 -77 12
-140 21 -63 8 -128 18 -145 20 -16 3 -46 6 -66 8 -20 2 -50 6 -65 10 -26 5
-72 12 -144 21 -14 2 -77 11 -140 19 -172 24 -211 26 -505 31 -277 3 -400 10
-470 25 -22 5 -54 11 -72 15 -48 8 -82 22 -154 66 -237 142 -525 149 -731 16
-251 -162 -269 -429 -43 -635 86 -79 248 -178 390 -240 59 -25 48 -28 -32 -6
-32 8 -69 17 -83 20 -14 2 -36 8 -50 13 -14 5 -47 15 -75 21 -27 7 -113 30
-190 52 -77 22 -162 46 -190 53 -27 7 -63 19 -80 25 -16 6 -32 11 -35 11 -3
-1 -43 11 -89 25 -50 16 -95 24 -112 20 -24 -5 -27 -2 -24 17 2 12 6 47 9 77
6 53 10 81 21 145 3 17 8 50 11 75 3 25 7 56 9 70 2 14 7 45 10 70 6 45 12 89
20 145 8 51 26 178 30 215 8 61 28 180 30 180 1 0 26 -4 56 -10z m10889 -303
c0 -2 -4 -28 -9 -58 -6 -30 -13 -76 -16 -104 -5 -43 -12 -94 -30 -205 -2 -14
-7 -46 -10 -72 -4 -27 -10 -48 -14 -48 -3 1 -23 23 -44 50 -86 112 -274 232
-400 255 -20 4 -39 11 -42 15 -4 6 97 40 165 56 8 1 85 24 170 49 85 26 163
48 174 50 10 3 21 7 24 10 6 5 32 7 32 2z m-8927 -1184 c-7 -2 -21 -2 -30 0
-10 3 -4 5 12 5 17 0 24 -2 18 -5z"/>
<path d="M8058 14699 c-118 -16 -334 -108 -403 -171 -8 -7 -38 -33 -67 -58
-103 -86 -214 -228 -328 -416 -57 -95 -147 -272 -330 -649 -72 -148 -166 -333
-210 -410 -101 -179 -136 -277 -160 -447 -12 -80 -14 -247 -5 -318 26 -194
106 -364 221 -469 101 -93 126 -102 609 -226 99 -26 187 -49 195 -51 45 -11
462 -119 559 -145 63 -17 122 -32 132 -34 9 -2 79 -20 155 -40 77 -20 146 -38
154 -40 19 -4 384 -98 510 -131 52 -14 102 -27 110 -29 8 -2 103 -26 211 -53
108 -28 209 -53 225 -55 16 -3 62 -12 101 -21 40 -9 87 -18 105 -21 18 -3 65
-12 103 -20 62 -12 121 -23 220 -40 17 -3 37 -8 45 -10 8 -2 31 -7 50 -10 19
-3 42 -8 50 -10 8 -2 31 -7 50 -10 19 -3 51 -10 70 -15 19 -5 47 -11 61 -14
49 -8 261 -67 348 -96 255 -84 434 -176 628 -322 102 -76 160 -106 225 -114
24 -3 53 -7 64 -9 44 -7 173 24 239 56 140 70 229 182 425 534 12 22 41 74 65
115 23 41 66 120 95 175 29 55 74 138 100 185 26 47 64 117 85 155 21 39 46
82 57 97 10 14 18 29 18 32 0 4 18 36 40 72 22 36 40 68 40 70 0 3 8 17 18 32
55 80 102 153 102 158 0 3 5 10 10 17 6 7 33 44 60 82 107 152 199 262 330
398 136 141 169 185 209 281 44 106 65 221 65 366 0 178 -16 278 -74 444 -44
129 -148 289 -230 355 -167 134 -350 128 -526 -16 l-57 -46 -126 32 c-155 38
-399 88 -526 107 -115 17 -166 24 -205 29 -25 3 -56 7 -70 10 -14 2 -56 7 -95
10 -38 3 -81 8 -95 10 -14 2 -63 6 -110 10 -47 4 -101 8 -120 10 -19 2 -82 6
-140 9 -58 4 -143 9 -190 12 -47 3 -123 7 -170 9 -47 1 -164 6 -260 9 -96 4
-195 9 -219 12 -65 6 -597 157 -1006 285 -189 59 -691 226 -720 239 -46 20
-215 68 -300 85 -134 26 -290 31 -417 14z"/>
<path d="M13463 8407 c-46 -11 -83 -24 -83 -27 0 -6 180 37 188 45 9 9 -20 4
-105 -18z"/>
<path d="M13300 8365 c-25 -7 -36 -13 -25 -13 11 0 38 5 60 13 52 17 24 17
-35 0z"/>
<path d="M13228 8343 c7 -3 16 -2 19 1 4 3 -2 6 -13 5 -11 0 -14 -3 -6 -6z"/>
<path d="M13188 8333 c7 -3 16 -2 19 1 4 3 -2 6 -13 5 -11 0 -14 -3 -6 -6z"/>
<path d="M13118 8313 c7 -3 16 -2 19 1 4 3 -2 6 -13 5 -11 0 -14 -3 -6 -6z"/>
<path d="M11190 8143 c0 -14 -27 -20 -146 -33 -54 -6 -107 -17 -118 -23 -20
-14 -46 -73 -108 -242 -87 -240 -161 -522 -212 -808 -3 -15 -10 -53 -15 -85
-13 -69 -18 -103 -26 -162 -3 -25 -10 -72 -15 -105 -5 -33 -12 -85 -15 -115
-3 -30 -8 -66 -10 -80 -10 -71 -19 -161 -30 -275 -4 -44 -9 -89 -11 -100 -2
-11 -6 -51 -9 -90 -3 -38 -8 -86 -10 -105 -3 -19 -7 -64 -10 -99 -3 -36 -8
-80 -10 -99 -2 -19 -7 -66 -10 -106 -3 -39 -8 -82 -10 -96 -2 -14 -6 -54 -10
-90 -4 -36 -8 -76 -10 -90 -2 -14 -7 -50 -10 -80 -3 -30 -8 -66 -10 -80 -2
-14 -7 -49 -10 -79 -4 -30 -9 -63 -11 -75 -2 -12 -7 -45 -11 -75 -6 -51 -5
-54 13 -47 10 4 62 14 114 22 52 8 100 16 105 18 42 10 55 20 56 39 0 12 2 31
4 42 3 11 9 56 15 100 6 44 13 91 15 105 2 14 9 65 15 115 6 49 12 90 13 92 2
1 32 -25 67 -59 36 -33 85 -79 110 -102 25 -23 140 -123 255 -223 116 -99 223
-195 239 -212 17 -17 38 -31 47 -31 10 0 64 18 121 40 57 22 113 41 125 42 18
2 20 5 11 23 -19 35 -277 285 -408 395 -313 264 -476 443 -494 545 -3 16 -1
46 4 66 13 48 86 115 137 126 74 16 382 9 464 -10 87 -20 102 -18 205 30 40
18 80 33 88 33 9 0 16 5 16 12 0 6 -3 9 -6 6 -3 -4 -20 -2 -37 3 -132 39 -379
30 -612 -23 -49 -11 -117 -26 -150 -34 -33 -7 -72 -17 -87 -23 -30 -11 -35 -7
-32 24 1 11 5 54 8 95 4 41 9 86 11 100 2 14 6 61 10 105 4 44 8 87 10 95 2 8
6 44 10 80 4 36 9 74 11 84 2 11 6 47 9 80 3 34 8 68 10 76 2 8 7 33 9 55 48
390 183 923 310 1225 20 46 34 86 31 88 -3 3 -5 1 -5 -5z"/>
<path d="M10167 7904 c-6 -7 -21 -9 -112 -21 -27 -3 -70 -11 -95 -17 l-45 -11
-12 -60 c-6 -33 -14 -80 -17 -105 -3 -25 -8 -56 -11 -70 -2 -14 -7 -36 -10
-50 -3 -14 -7 -43 -11 -65 -10 -72 -14 -99 -29 -180 -8 -44 -17 -96 -20 -115
-3 -19 -8 -48 -12 -65 -4 -16 -7 -32 -8 -35 -1 -3 -4 -27 -9 -53 -4 -27 -9
-59 -12 -70 -2 -12 -7 -38 -10 -57 -3 -19 -7 -37 -9 -40 -2 -3 -6 -26 -10 -50
-4 -25 -36 -189 -71 -365 -36 -176 -67 -336 -70 -355 -3 -19 -7 -41 -10 -48
-3 -11 -115 -558 -130 -642 -3 -14 -12 -59 -21 -100 -8 -41 -17 -86 -19 -100
-3 -14 -13 -70 -24 -125 -11 -55 -22 -113 -25 -130 -2 -16 -7 -41 -10 -55 -8
-40 -25 -133 -25 -137 0 -2 8 1 18 6 10 5 59 15 108 21 49 6 106 16 126 21 34
9 37 13 47 62 23 119 51 264 55 287 2 14 12 63 21 110 9 47 18 96 21 110 2 14
13 68 24 120 10 52 21 106 24 120 2 14 18 93 35 175 17 83 34 161 36 175 3 14
7 34 9 45 39 183 200 1001 221 1120 6 35 23 130 29 162 3 11 8 43 12 70 3 26
8 57 11 68 2 11 6 29 8 40 6 33 46 278 50 308 2 15 7 46 10 67 5 30 3 40 -8
40 -7 0 -17 -3 -20 -6z"/>
<path d="M8655 7234 c-38 -13 -97 -30 -130 -39 -56 -16 -58 -18 -40 -32 37
-27 130 -70 203 -94 81 -26 88 -25 272 25 109 29 110 31 42 50 -72 20 -157 56
-209 89 -46 29 -51 29 -138 1z"/>
<path d="M6750 7163 c-36 -8 -74 -16 -85 -18 -41 -9 -182 -54 -235 -75 -193
-77 -327 -211 -429 -432 -73 -156 -128 -359 -148 -543 -15 -137 -7 -494 11
-513 5 -4 203 40 262 59 l31 10 -9 52 c-20 124 -13 351 18 526 48 278 127 496
242 668 91 139 164 199 228 188 160 -25 257 -217 257 -505 0 -75 -11 -266 -17
-295 -2 -11 -7 -45 -11 -75 -4 -30 -9 -62 -10 -71 -2 -9 -6 -34 -9 -55 -4 -22
-17 -93 -31 -159 -13 -66 -26 -131 -29 -145 -2 -14 -11 -58 -20 -99 -9 -41
-14 -76 -13 -78 2 -2 27 4 56 13 29 8 89 22 134 29 44 8 86 20 93 27 6 7 17
40 23 73 17 96 19 108 61 263 80 299 168 523 277 698 59 95 78 120 160 202
l62 62 38 -15 c107 -45 177 -158 200 -323 10 -70 10 -385 0 -467 -24 -195 -73
-461 -151 -808 -17 -76 -20 -105 -11 -97 12 10 69 22 180 36 96 12 96 11 132
174 18 80 35 157 38 172 3 16 12 56 19 90 8 35 17 79 20 98 3 19 8 46 11 60 2
14 7 36 10 50 5 28 10 61 21 135 3 28 8 59 10 70 25 136 25 499 0 600 -67 275
-217 352 -521 265 -66 -19 -123 -39 -127 -45 -5 -6 -8 -6 -8 0 0 6 -3 6 -8 -1
-4 -6 -32 -24 -62 -40 -54 -29 -186 -151 -226 -209 -12 -16 -21 -23 -21 -15 0
46 -16 159 -29 208 -55 214 -182 299 -384 255z"/>
<path d="M8814 6518 l-141 -40 7 -39 c13 -72 -4 -188 -66 -431 -2 -10 -6 -26
-8 -35 -2 -10 -23 -92 -45 -183 -49 -198 -49 -203 -17 -190 13 5 46 11 73 14
164 20 184 27 195 71 4 17 19 80 34 140 14 61 39 164 56 230 55 223 67 280 74
338 7 60 -3 167 -14 166 -4 0 -70 -18 -148 -41z"/>
<path d="M17540 12392 c-8 -3 -52 -22 -97 -43 -46 -22 -93 -39 -105 -39 -23
-1 -23 -1 -3 -16 261 -193 269 -200 399 -330 165 -164 278 -319 370 -508 167
-340 215 -698 150 -1101 -3 -16 -7 -43 -10 -60 -4 -26 -35 -148 -50 -198 -5
-16 -3 -17 13 -9 19 11 56 17 153 27 102 10 118 20 135 79 9 29 18 64 20 77 2
13 11 56 20 94 28 133 39 253 38 425 -2 470 -181 886 -532 1239 -129 130 -174
170 -271 242 -160 119 -190 135 -230 121z"/>
<path d="M16980 11478 c-47 -22 -97 -41 -112 -42 -16 0 -28 -2 -28 -3 0 -1 30
-22 68 -47 215 -144 295 -321 234 -521 -19 -62 -56 -135 -117 -230 -13 -19
-14 -26 -5 -19 19 14 54 21 148 29 40 3 84 10 97 15 51 19 154 209 178 326 33
160 -6 279 -130 395 -72 67 -186 139 -219 139 -16 -1 -67 -19 -114 -42z"/>
<path d="M1954 4590 c-12 -5 -45 -11 -74 -15 -29 -4 -60 -8 -69 -10 -9 -1 -35
-6 -58 -10 -23 -3 -46 -12 -52 -18 -5 -7 -13 -39 -16 -72 -4 -33 -9 -69 -12
-80 -3 -11 -6 -114 -8 -230 -4 -265 6 -367 56 -570 88 -356 283 -667 566 -902
51 -42 72 -41 187 13 42 19 89 37 106 40 l30 6 -28 21 c-53 41 -175 163 -231
232 -85 105 -127 167 -182 269 -48 91 -132 286 -123 286 3 0 1 8 -5 18 -10 19
-58 226 -66 287 -28 213 -26 529 4 689 9 51 6 57 -25 46z"/>
<path d="M299 4246 c-5 -5 -40 -12 -114 -21 -87 -11 -143 -26 -149 -41 -5 -14
-9 -37 -25 -169 -9 -69 -7 -497 3 -545 2 -14 7 -43 11 -65 70 -423 262 -772
573 -1040 85 -74 82 -74 217 -13 50 22 100 40 112 40 20 0 16 6 -25 42 -238
205 -413 463 -508 746 -15 47 -29 90 -30 95 -1 6 -9 37 -17 70 -15 60 -22 98
-31 165 -3 19 -8 53 -12 75 -9 61 -12 381 -4 455 5 36 11 94 14 129 4 36 9 68
12 73 5 8 -19 12 -27 4z"/>
</g>
</svg>
